<svg width="71" height="29" viewBox="0 0 71 29" fill="none" xmlns="http://www.w3.org/2000/svg">
<circle cx="14" cy="14.1943" r="14" fill="#E3B873"/>
<path d="M8.4 8.99414H19.6C20.37 8.99414 21 9.62414 21 10.3941V18.7941C21 19.5641 20.37 20.1941 19.6 20.1941H8.4C7.63 20.1941 7 19.5641 7 18.7941V10.3941C7 9.62414 7.63 8.99414 8.4 8.99414Z" stroke="white" stroke-width="1.5" stroke-linecap="round" stroke-linejoin="round"/>
<path d="M21 10.3945L14 15.2945L7 10.3945" stroke="white" stroke-width="1.5" stroke-linecap="round" stroke-linejoin="round"/>
<circle cx="57" cy="14.1943" r="14" fill="#E3B873"/>
<path d="M60 8.59375H54C52.3432 8.59375 51 9.9369 51 11.5938V17.5938C51 19.2506 52.3432 20.5938 54 20.5938H60C61.6569 20.5938 63 19.2506 63 17.5938V11.5938C63 9.9369 61.6569 8.59375 60 8.59375Z" stroke="white" stroke-width="1.5"/>
<path d="M59.4 14.2159C59.4741 14.7153 59.3888 15.2253 59.1563 15.6733C58.9238 16.1214 58.5559 16.4848 58.105 16.7117C57.6541 16.9387 57.1431 17.0177 56.6447 16.9375C56.1463 16.8573 55.6859 16.622 55.3289 16.265C54.972 15.9081 54.7367 15.4477 54.6565 14.9493C54.5763 14.4509 54.6553 13.9399 54.8822 13.489C55.1092 13.038 55.4725 12.6702 55.9206 12.4377C56.3687 12.2052 56.8787 12.1199 57.378 12.1939C57.8874 12.2695 58.3589 12.5068 58.723 12.8709C59.0872 13.235 59.3245 13.7066 59.4 14.2159Z" stroke="white" stroke-width="1.5" stroke-linecap="round" stroke-linejoin="round"/>
</svg>
